<?xml version="1.0" encoding="utf-8"?>
<!-- Generator: Adobe Illustrator 28.0.0, SVG Export Plug-In . SVG Version: 6.00 Build 0)  -->
<svg version="1.1" id="Layer_1" xmlns="http://www.w3.org/2000/svg" xmlns:xlink="http://www.w3.org/1999/xlink" x="0px" y="0px"
	 viewBox="0 0 751.29 384.86" style="enable-background:new 0 0 751.29 384.86;" xml:space="preserve">
<style type="text/css">
	.st0{fill:#DC4C26;}
	.st1{fill:#FFFFFF;}
</style>
<rect class="st0" width="751.29" height="384.86"/>
<g>
	<path class="st1" d="M101.53,124.02h20.43l68.79,103.29V124.02h18.31v134.89h-20.23l-68.8-103.29v103.29h-18.5V124.02z"/>
	<path class="st1" d="M239.21,175.38c9.83-9.83,21.61-14.74,35.36-14.74c13.75,0,25.53,4.91,35.36,14.74
		c9.83,9.83,14.74,21.62,14.74,35.36c0,13.75-4.91,25.53-14.74,35.36c-9.83,9.83-21.62,14.74-35.36,14.74
		c-13.75,0-25.53-4.91-35.36-14.74c-9.83-9.83-14.74-21.61-14.74-35.36C224.47,196.99,229.39,185.2,239.21,175.38z M296.35,187.61
		c-5.53-6.17-12.78-9.25-21.78-9.25c-8.99,0-16.32,3.08-21.97,9.25c-5.65,6.17-8.48,13.87-8.48,23.12c0,9.25,2.82,16.96,8.48,23.12
		c5.65,6.17,12.97,9.25,21.97,9.25c8.99,0,16.25-3.08,21.78-9.25c5.52-6.17,8.29-13.87,8.29-23.12
		C304.64,201.49,301.87,193.78,296.35,187.61z"/>
	<path class="st1" d="M390.19,160.44v22.16c-9.12,0-16.54,2.57-22.26,7.71c-5.72,5.14-8.58,11.88-8.58,20.23v48.18h-19.27v-48.18
		c0-15.42,4.59-27.62,13.78-36.61C363.05,164.94,375.16,160.44,390.19,160.44z"/>
	<path class="st1" d="M404.26,124.21h19.27v38.54h26.21v16.38h-26.21v31.8c0,9.12,2.86,16.48,8.58,22.06
		c5.71,5.59,13.13,8.38,22.26,8.38v17.73c-13.88,0-25.7-4.59-35.46-13.78c-9.76-9.18-14.65-20.65-14.65-34.4V124.21z"/>
	<path class="st1" d="M473.44,215.75c1.16,7.84,4.5,14.36,10.02,19.56c5.52,5.2,12.27,7.8,20.23,7.8c10.15,0,18.05-3.85,23.7-11.56
		l13.1,13.1c-4.62,5.14-10.12,9.12-16.48,11.95c-6.36,2.82-13.14,4.24-20.33,4.24c-13.75,0-25.44-4.88-35.07-14.65
		c-9.64-9.76-14.45-21.58-14.45-35.46c0-13.88,4.82-25.69,14.45-35.46c9.64-9.76,21.32-14.65,35.07-14.65
		c13.75,0,25.34,4.88,34.78,14.65c9.44,9.76,14.16,21.58,14.16,35.46c0,1.29-0.07,2.96-0.19,5.01c-10.54-0.13-21.65-0.19-33.34-0.19
		C507.94,215.56,492.71,215.62,473.44,215.75z M503.7,179.33c-7.2,0-13.36,1.83-18.5,5.49c-5.14,3.66-8.67,8.71-10.6,15.13h57.62
		c-1.93-6.42-5.37-11.47-10.31-15.13C516.96,181.16,510.89,179.33,503.7,179.33z"/>
	<path class="st1" d="M555.92,162.76h22.74l23.9,34.3l25.82-34.3h20.04l-35.07,47.41l36.42,48.95h-22.74l-26.02-36.42l-29.87,36.42
		h-20.23l39.12-48.95L555.92,162.76z"/>
</g>
</svg>
