<svg width="22" height="16" viewBox="0 0 22 16" fill="none" xmlns="http://www.w3.org/2000/svg">
<path d="M21.3575 4.49438C21.3575 7.7613 21.3575 11.0303 21.3575 14.2973C21.349 14.3079 21.3383 14.3186 21.334 14.3314C21.0506 15.4629 20.3644 16 19.1966 16C16.3261 16 13.4555 16 10.585 16C7.74853 16 4.91209 15.9978 2.07778 16C1.51092 16 1.01438 15.8337 0.598828 15.4395C0.268514 15.1262 0.104422 14.7277 0 14.2951C0 11.0282 0 7.75916 0 4.49225C0.0319659 4.50503 0.0639318 4.51356 0.0916356 4.53274C2.97496 6.45495 5.86042 8.3793 8.74374 10.3015C10.0373 11.1646 11.3181 11.1646 12.6137 10.3015C15.1923 8.58388 17.7688 6.86412 20.3474 5.14648C20.6819 4.92912 21.0208 4.71388 21.3575 4.49438Z" fill="#DC4B22"/>
<path d="M0 2.24187C0 2.06073 0 1.87959 0 1.70059C0.034097 1.58125 0.0639318 1.46191 0.104422 1.3447C0.387853 0.500799 1.13159 0 2.09909 0C7.81886 0 13.5408 0 19.2605 0C19.3223 0 19.3863 -1.95136e-07 19.4481 0.00213087C20.2962 0.0468831 20.9931 0.564731 21.2531 1.34683C21.2914 1.46404 21.3234 1.58338 21.3575 1.70272C21.3575 1.88386 21.3575 2.065 21.3575 2.24401C21.2232 2.79595 20.9526 3.24987 20.4667 3.57166C17.5855 5.48535 14.7107 7.40756 11.8295 9.32339C11.0602 9.83484 10.2802 9.82632 9.51092 9.31273C6.63825 7.39691 3.76558 5.48109 0.892914 3.56739C0.436867 3.26478 0.138519 2.85775 0.0340969 2.31433C0.0298348 2.29089 0.0106553 2.26745 0 2.24187Z" fill="#DC4B22"/>
</svg>
