<?xml version="1.0" encoding="utf-8"?>
<!-- Generator: Adobe Illustrator 28.0.0, SVG Export Plug-In . SVG Version: 6.00 Build 0)  -->
<svg version="1.1" id="Layer_1" xmlns="http://www.w3.org/2000/svg" xmlns:xlink="http://www.w3.org/1999/xlink" x="0px" y="0px"
	 viewBox="0 0 800 800" style="enable-background:new 0 0 800 800;" xml:space="preserve">
<style type="text/css">
	.st0{fill:none;}
	.st1{fill:#E6FC8B;}
</style>
<g>
	<path class="st0" d="M0,0h800v800H0V0z"/>
	<path class="st1" d="M250.5,50c13.8,0,25,11.2,25,25c0,12.8-9.7,23.4-22.1,24.8l-2.9,0.2H175c-39.9,0-72.6,31.2-74.9,70.6L100,175
		v450c0,39.9,31.2,72.6,70.6,74.9l4.4,0.1h450c39.9,0,72.6-31.2,74.9-70.6l0.1-4.4V175c0-39.9-31.2-72.6-70.6-74.9L625,100h-74.8
		c-13.8,0-25-11.2-25-25c0-12.8,9.7-23.4,22.1-24.8l2.9-0.2H625c67.2,0,122,53.1,124.9,119.6l0.1,5.4v450
		c0,67.2-53.1,122-119.6,124.9L625,750H175c-67.2,0-122-53.1-124.9-119.6L50,625V175c0-67.2,53.1-122,119.6-124.9L175,50L250.5,50z
		 M399.2,49.4c13.8,0,25,11.2,25,25l0,381l81-81c9.8-9.8,25.6-9.8,35.4,0c9.8,9.8,9.8,25.6,0,35.4L416.9,533.5
		c-9.8,9.8-25.6,9.8-35.4,0L257.8,409.7c-9.8-9.8-9.8-25.6,0-35.4c9.8-9.8,25.6-9.8,35.4,0l81.1,81.1l0-381.1
		C374.2,60.6,385.4,49.4,399.2,49.4L399.2,49.4z"/>
</g>
</svg>
