<svg width="21" height="21" viewBox="0 0 21 21" fill="none" xmlns="http://www.w3.org/2000/svg">
<path d="M15.7435 21C14.7267 20.9077 13.8478 20.6753 12.9898 20.3587C10.9413 19.6029 9.12392 18.4546 7.44287 17.0795C5.09817 15.1617 3.13979 12.913 1.65782 10.2662C0.888498 8.89233 0.310574 7.44443 0.0388416 5.88247C-0.0437783 5.40827 -0.00516698 4.98549 0.257847 4.5681C1.22375 3.03559 2.33642 1.62935 3.73162 0.460119C3.82067 0.385474 3.92052 0.323684 4.01581 0.256089C4.56342 -0.131859 5.00039 -0.0646781 5.575 0.360592C5.67879 0.437311 5.77013 0.539119 5.84507 0.644866C6.74309 1.91238 7.60686 3.20209 8.28754 4.60252C8.43639 4.90856 8.5491 5.23389 8.65643 5.55756C8.78887 5.9565 8.70874 6.33864 8.42517 6.63763C8.08515 6.99614 7.71211 7.32499 7.33928 7.65074C6.85789 8.07145 6.84606 8.06709 7.10201 8.66384C8.19413 11.2113 10.0342 12.9879 12.6187 14.0001C12.8451 14.0889 12.9877 14.0829 13.1515 13.8737C13.4565 13.4838 13.7934 13.1181 14.1286 12.7529C14.5662 12.2767 15.1049 12.1288 15.6959 12.4017C16.442 12.7461 17.1887 13.0998 17.8945 13.5176C18.728 14.0109 19.5212 14.5726 20.3253 15.1138C20.665 15.3425 20.8703 15.6705 20.9699 16.0705C21.0245 16.2895 21.0077 16.4956 20.8958 16.6822C20.7503 16.9252 20.6056 17.1753 20.4198 17.3863C19.2195 18.7488 17.8281 19.883 16.256 20.7931C16.0721 20.8994 15.8585 20.9546 15.7433 21H15.7435Z" fill="#DC4B22"/>
</svg>
