<?xml version="1.0" encoding="utf-8"?>
<!-- Generator: Adobe Illustrator 28.0.0, SVG Export Plug-In . SVG Version: 6.00 Build 0)  -->
<svg version="1.1" id="Layer_1" xmlns="http://www.w3.org/2000/svg" xmlns:xlink="http://www.w3.org/1999/xlink" x="0px" y="0px"
	 viewBox="0 0 800 800" style="enable-background:new 0 0 800 800;" xml:space="preserve">
<style type="text/css">
	.st0{fill:#DC4B22;}
</style>
<g>
	<path class="st0" d="M400,124.2c0.7,0,0.8,0.2,1,0.6l70.5,142.9c8.4,17,24.7,28.9,43.5,31.6l157.7,22.9c0.5,0.1,0.7,0.1,0.9,0.7
		c0.2,0.6,0.1,0.8-0.3,1.1L559.2,435.3c-13.6,13.3-19.8,32.4-16.6,51.1l26.9,157.1c0.1,0.5,0,0.6-0.1,0.8c-0.3,0.4-0.7,0.5-0.9,0.5
		c-0.1,0-0.2,0-0.5-0.2l-141.1-74.2c-8.3-4.3-17.6-6.6-26.9-6.6c-9.3,0-18.6,2.3-26.9,6.6l-141.1,74.2c-0.3,0.1-0.5,0.2-0.5,0.2
		c-0.2,0-0.6-0.2-0.9-0.5c-0.2-0.2-0.2-0.3-0.1-0.8l26.9-157.1c3.2-18.7-3-37.9-16.6-51.1L126.7,324.1c-0.3-0.3-0.5-0.5-0.3-1.1
		c0.2-0.6,0.4-0.7,0.9-0.7L285,299.3c18.8-2.7,35.1-14.6,43.5-31.6L399,124.8C399.2,124.4,399.3,124.2,400,124.2 M400,95.9
		c-10.5,0-21,5.5-26.4,16.4l-70.5,142.9c-4.3,8.7-12.6,14.7-22.2,16.1l-157.7,22.9c-24.1,3.5-33.8,33.2-16.3,50.2L221,455.6
		c6.9,6.8,10.1,16.5,8.5,26l-26.9,157.1c-3.3,19,11.8,34.5,29,34.5c4.5,0,9.2-1.1,13.7-3.4l141.1-74.2c4.3-2.3,9-3.4,13.7-3.4
		c4.7,0,9.4,1.1,13.7,3.4l141.1,74.2c4.5,2.4,9.2,3.4,13.7,3.4c17.1,0,32.3-15.4,29-34.5l-26.9-157.1c-1.6-9.5,1.5-19.3,8.5-26
		l114.1-111.2c17.5-17,7.8-46.7-16.3-50.2l-157.7-22.9c-9.6-1.4-17.9-7.4-22.2-16.1l-70.5-142.9C421,101.3,410.5,95.9,400,95.9
		L400,95.9z"/>
</g>
</svg>
