<?xml version="1.0" encoding="utf-8"?>
<!-- Generator: Adobe Illustrator 28.0.0, SVG Export Plug-In . SVG Version: 6.00 Build 0)  -->
<svg version="1.1" id="Layer_1" xmlns="http://www.w3.org/2000/svg" xmlns:xlink="http://www.w3.org/1999/xlink" x="0px" y="0px"
	 viewBox="0 0 800 800" style="enable-background:new 0 0 800 800;" xml:space="preserve">
<style type="text/css">
	.st0{fill:#FFFFFF;}
</style>
<g>
	<path class="st0" d="M666.7,33.3H133.3c-55.1,0-100,44.9-100,100v533.3c0,55.1,44.9,100,100,100h533.3c55.1,0,100-44.9,100-100
		V133.3C766.7,78.2,721.8,33.3,666.7,33.3z M700,666.7c0,18.4-15,33.3-33.3,33.3H133.3c-18.4,0-33.3-15-33.3-33.3V133.3
		c0-18.4,15-33.3,33.3-33.3h533.3c18.4,0,33.3,15,33.3,33.3V666.7z"/>
	<path class="st0" d="M516.7,366.7h-83.3v-83.3c0-18.4-14.9-33.3-33.3-33.3s-33.3,14.9-33.3,33.3v83.3h-83.3
		c-18.4,0-33.3,14.9-33.3,33.3s14.9,33.3,33.3,33.3h83.3v83.3c0,18.4,14.9,33.3,33.3,33.3s33.3-14.9,33.3-33.3v-83.3h83.3
		c18.4,0,33.3-14.9,33.3-33.3S535.1,366.7,516.7,366.7z"/>
</g>
</svg>
