<?xml version="1.0" encoding="utf-8"?>
<!-- Generator: Adobe Illustrator 28.0.0, SVG Export Plug-In . SVG Version: 6.00 Build 0)  -->
<svg version="1.1" id="Layer_1" xmlns="http://www.w3.org/2000/svg" xmlns:xlink="http://www.w3.org/1999/xlink" x="0px" y="0px"
	 viewBox="0 0 800 800" style="enable-background:new 0 0 800 800;" xml:space="preserve">
<style type="text/css">
	.st0{fill:#DC4B22;}
</style>
<path class="st0" d="M373.6,112.3c10.8-21.9,42-21.9,52.8,0l70.5,142.9c4.3,8.7,12.6,14.7,22.2,16.1l157.7,22.9
	c24.1,3.5,33.8,33.2,16.3,50.2L579,455.6c-6.9,6.8-10.1,16.5-8.5,26l26.9,157.1c4.1,24-21.1,42.4-42.7,31l-141.1-74.2
	c-8.6-4.5-18.8-4.5-27.4,0l-141.1,74.2c-21.6,11.3-46.8-7-42.7-31l26.9-157.1c1.6-9.5-1.5-19.3-8.5-26L106.9,344.4
	c-17.5-17-7.8-46.7,16.3-50.2l157.7-22.9c9.6-1.4,17.9-7.4,22.2-16.1L373.6,112.3z"/>
</svg>
