<?xml version="1.0" encoding="utf-8"?>
<!-- Generator: Adobe Illustrator 28.0.0, SVG Export Plug-In . SVG Version: 6.00 Build 0)  -->
<svg version="1.1" id="Layer_1" xmlns="http://www.w3.org/2000/svg" xmlns:xlink="http://www.w3.org/1999/xlink" x="0px" y="0px"
	 viewBox="0 0 800 800" style="enable-background:new 0 0 800 800;" xml:space="preserve">
<style type="text/css">
	.st0{fill:none;stroke:#000000;stroke-width:28.3465;stroke-linecap:round;stroke-linejoin:round;stroke-miterlimit:133.3333;}
</style>
<path class="st0" d="M400,133.3H200c-36.8,0-66.7,29.8-66.7,66.7v400c0,36.8,29.8,66.7,66.7,66.7h400c36.8,0,66.7-29.8,66.7-66.7
	V400 M613.8,280.5l36.2-36.2c26-26,26-68.2,0-94.3c-26-26-68.2-26-94.3,0l-36.2,36.2 M613.8,280.5L412.6,481.7
	c-9.3,9.3-21.2,15.7-34.1,18.2l-98.1,19.6l19.6-98.1c2.6-12.9,8.9-24.8,18.2-34.1l201.2-201.2 M613.8,280.5l-94.3-94.3"/>
</svg>
