<?xml version="1.0" encoding="utf-8"?>
<!-- Generator: Adobe Illustrator 28.0.0, SVG Export Plug-In . SVG Version: 6.00 Build 0)  -->
<svg version="1.1" id="Layer_1" xmlns="http://www.w3.org/2000/svg" xmlns:xlink="http://www.w3.org/1999/xlink" x="0px" y="0px"
	 viewBox="0 0 800 800" style="enable-background:new 0 0 800 800;" xml:space="preserve">
<style type="text/css">
	.st0{fill:#FFFFFF;}
</style>
<path class="st0" d="M600,200h83.3c9.2,0,16.7,7.5,16.7,16.7c0,9.2-7.5,16.7-16.7,16.7H600v83.3c0,9.2-7.5,16.7-16.7,16.7
	s-16.7-7.5-16.7-16.7v-83.3h-83.3c-9.2,0-16.7-7.5-16.7-16.7c0-9.2,7.5-16.7,16.7-16.7h83.3v-83.3c0-9.2,7.5-16.7,16.7-16.7
	s16.7,7.5,16.7,16.7V200z M666.7,383.3c0-9.2,7.5-16.7,16.7-16.7c9.2,0,16.7,7.5,16.7,16.7v233.3c0,46-37.3,83.3-83.3,83.3H183.3
	c-46,0-83.3-37.3-83.3-83.3V183.3c0-46,37.3-83.3,83.3-83.3h233.3c9.2,0,16.7,7.5,16.7,16.7s-7.5,16.7-16.7,16.7H183.3
	c-27.6,0-50,22.4-50,50v433.3c0,27.6,22.4,50,50,50h433.3c27.6,0,50-22.4,50-50V383.3z"/>
</svg>
